<svg xmlns="http://www.w3.org/2000/svg" version="1.1" xmlns:xlink="http://www.w3.org/1999/xlink" width="512" height="512" x="0" y="0" viewBox="0 0 682.667 682.667" style="enable-background:new 0 0 512 512" xml:space="preserve" class="">
    <g>
        <defs>
            <clipPath id="a" clipPathUnits="userSpaceOnUse">
                <path d="M0 512h512V0H0Z" fill="#000000" opacity="1" data-original="#000000"></path>
            </clipPath>
        </defs>
        <g clip-path="url(#a)" transform="matrix(1.33333 0 0 -1.33333 0 682.667)">
            <path d="M0 0c-11.716 11.716-11.716 30.71 0 42.426l93.932 93.933 42.426-42.427L42.426 0C30.71-11.716 11.716-11.716 0 0" style="fill-opacity:1;fill-rule:nonzero;stroke:none" transform="translate(119.222 140.927)" fill="#aae8f7" data-original="#aae8f7"></path>
            <path d="M0 0c11.716 11.716 11.716 30.71 0 42.426l-93.932 93.933-42.426-42.427L-42.426 0C-30.71-11.716-11.716-11.716 0 0" style="fill-opacity:1;fill-rule:nonzero;stroke:none" transform="translate(392.778 140.927)" fill="#c1f1ff" data-original="#c1f1ff" class=""></path>
            <path d="M0 0c-27.614 0-50-22.386-50-50 0-5.523 4.478-10 10-10H80V0Z" style="fill-opacity:1;fill-rule:nonzero;stroke:none" transform="translate(176.001 274.028)" fill="#7c96b3" data-original="#7c96b3"></path>
            <path d="M0 0c0 27.614-22.386 50-50 50h-80v-60h120C-4.477-10 0-5.523 0 0" style="fill-opacity:1;fill-rule:nonzero;stroke:none" transform="translate(386.001 224.028)" fill="#90aecf" data-original="#90aecf"></path>
            <path d="M0 0c-2.877-16.317 8.018-31.876 24.335-34.753l.003-.001c16.316-2.875 31.874 8.02 34.75 24.335l8.989 50.979-25.759 22.492L8.989 50.979Z" style="fill-opacity:1;fill-rule:nonzero;stroke:none" transform="translate(167.108 42.714)" fill="#7c96b3" data-original="#7c96b3"></path>
            <path d="M0 0c2.878-16.317-8.018-31.876-24.334-34.753l-.004-.001c-16.315-2.875-31.873 8.02-34.75 24.335l-8.989 50.979 25.759 22.492 33.33-12.073z" style="fill-opacity:1;fill-rule:nonzero;stroke:none" transform="translate(344.894 42.714)" fill="#90aecf" data-original="#90aecf"></path>
            <path d="M0 0h-127.215l-10.844-61.496-5.451-30.917 59.088-10.419 4.941 28.016a16.12 16.12 0 0 0 31.748 0l4.94-28.016 59.088 10.418-5.451 30.918z" style="fill-opacity:1;fill-rule:nonzero;stroke:none" transform="translate(319.607 186.106)" fill="#c1f1ff" data-original="#c1f1ff" class=""></path>
            <path d="M0 0h-63.607l-10.844-61.496-5.451-30.917 59.088-10.419 4.94 28.016A16.119 16.119 0 0 0 0-61.496c-12.531 22.006 0 40 0 40z" style="fill-opacity:1;fill-rule:nonzero;stroke:none" transform="translate(256 186.106)" fill="#aae8f7" data-original="#aae8f7"></path>
            <path d="M0 0h-99.736l-21.29-73.186c-1.67-5.74 1.178-11.843 6.672-14.201 11.548-4.954 33.469-12.03 64.486-12.03 31.016 0 52.937 7.076 64.485 12.03 5.494 2.358 8.343 8.461 6.673 14.201z" style="fill-opacity:1;fill-rule:nonzero;stroke:none" transform="translate(305.868 264.028)" fill="#e7faff" data-original="#e7faff" class=""></path>
            <path d="M0 0h-21.337l-21.29-73.186c-1.67-5.74 1.179-11.843 6.673-14.201 11.548-4.954 33.469-12.03 64.485-12.03C-11.533-73.594 0 0 0 0" style="fill-opacity:1;fill-rule:nonzero;stroke:none" transform="translate(227.469 264.028)" fill="#c1f1ff" data-original="#c1f1ff" class=""></path>
            <path d="M0 0c-60.229 0-109.054-48.825-109.054-109.053v-10.391h218.108v10.391C109.054-48.825 60.229 0 0 0" style="fill-opacity:1;fill-rule:nonzero;stroke:none" transform="translate(256.001 479.962)" fill="#aae8f7" data-original="#aae8f7"></path>
            <path d="M0 0c-3.534 4.339-19.625 4.309-34.735 3.209C-45.657 16.77-56.888 26.34-63.591 26.34c-6.703 0-17.933-9.57-28.855-23.131-15.111 1.1-31.201 1.13-34.736-3.209-7.018-8.619-26.718-123.268 63.591-123.268C26.719-123.268 7.019-8.619 0 0" style="fill-opacity:1;fill-rule:nonzero;stroke:none" transform="translate(319.592 478.16)" fill="#ff7591" data-original="#ff7591"></path>
            <path d="M0 0c-7.019-8.619-26.719-123.268 63.591-123.268C30.081-87.929 17.441-19.203 34.735 3.209 19.625 4.309 3.534 4.339 0 0" style="fill-opacity:1;fill-rule:nonzero;stroke:none" transform="translate(192.41 478.16)" fill="#fe5b70" data-original="#fe5b70"></path>
            <path d="M0 0c.253-60.048 50.669-109.467 110.71-108.572 59.465.885 107.396 49.366 107.396 109.041z" style="fill-opacity:1;fill-rule:nonzero;stroke:none" transform="translate(146.948 348.201)" fill="#c1f1ff" data-original="#c1f1ff" class=""></path>
            <path d="M0 0h-37.599c0-.157-.005-.312-.005-.469.253-60.048 50.669-109.467 110.71-108.573 5.837.087 11.562.64 17.143 1.609C38.982-98.521 0-53.815 0 0" style="fill-opacity:1;fill-rule:nonzero;stroke:none" transform="translate(184.552 348.67)" fill="#aae8f7" data-original="#aae8f7"></path>
            <path d="M0 0h-191.17a20.001 20.001 0 0 1-18.974-13.675l-9.78-29.343c-3.222-9.668 1.339-20.212 10.592-24.483l96.984-44.762a40.002 40.002 0 0 1 33.526 0l96.984 44.762c9.253 4.271 13.815 14.815 10.592 24.483l-9.78 29.343A20.001 20.001 0 0 1 0 0" style="fill-opacity:1;fill-rule:nonzero;stroke:none" transform="translate(351.585 398.933)" fill="#e7faff" data-original="#e7faff" class=""></path>
            <path d="M0 0a20.002 20.002 0 0 1-18.974-13.676l-9.78-29.342c-3.224-9.668 1.339-20.213 10.592-24.483l49.729-22.953c-.2.707-.39 1.408-.598 2.121C16.587-39.075 33.096 0 33.096 0Z" style="fill-opacity:1;fill-rule:nonzero;stroke:none" transform="translate(160.415 398.933)" fill="#c1f1ff" data-original="#c1f1ff" class=""></path>
            <path d="m0 0-27.458-27.458c-11.716-11.715-30.71-11.715-42.426 0-11.716 11.716-11.716 30.711 0 42.427l30.362 30.362" style="stroke-width:15;stroke-linecap:round;stroke-linejoin:round;stroke-miterlimit:10;stroke-dasharray:none;stroke-opacity:1" transform="translate(189.106 168.385)" fill="none" stroke="#000000" stroke-width="15" stroke-linecap="round" stroke-linejoin="round" stroke-miterlimit="10" stroke-dasharray="none" stroke-opacity="" data-original="#000000" class=""></path>
            <path d="m0 0 27.351-27.35c11.715-11.716 30.71-11.716 42.425 0 11.716 11.716 11.716 30.71 0 42.426L39.362 45.49" style="stroke-width:15;stroke-linecap:round;stroke-linejoin:round;stroke-miterlimit:10;stroke-dasharray:none;stroke-opacity:1" transform="translate(323.002 168.277)" fill="none" stroke="#000000" stroke-width="15" stroke-linecap="round" stroke-linejoin="round" stroke-miterlimit="10" stroke-dasharray="none" stroke-opacity="" data-original="#000000" class=""></path>
            <path d="M0 0h55c5.523 0 10 4.477 10 10 0 27.614-22.386 50-50 50" style="stroke-width:15;stroke-linecap:round;stroke-linejoin:round;stroke-miterlimit:10;stroke-dasharray:none;stroke-opacity:1" transform="translate(321.001 214.028)" fill="none" stroke="#000000" stroke-width="15" stroke-linecap="round" stroke-linejoin="round" stroke-miterlimit="10" stroke-dasharray="none" stroke-opacity="" data-original="#000000" class=""></path>
            <path d="M0 0c-4.748-7.648-7.49-16.672-7.49-26.336 0-5.523 4.477-10 10-10h55.383" style="stroke-width:15;stroke-linecap:round;stroke-linejoin:round;stroke-miterlimit:10;stroke-dasharray:none;stroke-opacity:1" transform="translate(133.491 250.364)" fill="none" stroke="#000000" stroke-width="15" stroke-linecap="round" stroke-linejoin="round" stroke-miterlimit="10" stroke-dasharray="none" stroke-opacity="" data-original="#000000" class=""></path>
            <path d="M0 0h-.403c-7.03 0-13.72-1.451-19.789-4.069" style="stroke-width:15;stroke-linecap:round;stroke-linejoin:round;stroke-miterlimit:10;stroke-dasharray:none;stroke-opacity:1" transform="translate(176.404 274.028)" fill="none" stroke="#000000" stroke-width="15" stroke-linecap="round" stroke-linejoin="round" stroke-miterlimit="10" stroke-dasharray="none" stroke-opacity="" data-original="#000000" class=""></path>
            <path d="m0 0-3.792 21.504-.003.001-5.451 30.916-9.092 51.562" style="stroke-width:15;stroke-linecap:round;stroke-linejoin:round;stroke-miterlimit:10;stroke-dasharray:none;stroke-opacity:1" transform="translate(339.697 72.189)" fill="none" stroke="#000000" stroke-width="15" stroke-linecap="round" stroke-linejoin="round" stroke-miterlimit="10" stroke-dasharray="none" stroke-opacity="" data-original="#000000" class=""></path>
            <path d="m0 0-9.109-51.662-5.452-30.917-8.989-50.979c-2.877-16.317 8.018-31.876 24.335-34.753l.003-.001c16.316-2.875 31.874 8.02 34.75 24.335l8.989 50.979 4.941 28.017a16.119 16.119 0 0 0 31.748 0l4.94-28.017h.002l8.989-50.979c2.877-16.315 18.435-27.21 34.75-24.335l.004.001c16.317 2.877 27.212 18.436 24.334 34.753" style="stroke-width:15;stroke-linecap:round;stroke-linejoin:round;stroke-miterlimit:10;stroke-dasharray:none;stroke-opacity:1" transform="translate(190.658 176.272)" fill="none" stroke="#000000" stroke-width="15" stroke-linecap="round" stroke-linejoin="round" stroke-miterlimit="10" stroke-dasharray="none" stroke-opacity="" data-original="#000000" class=""></path>
            <path d="m0 0-18.13-62.324c-1.67-5.74 1.179-11.843 6.673-14.201C.091-81.479 22.012-88.556 53.028-88.556c31.017 0 52.938 7.077 64.486 12.031 5.494 2.358 8.342 8.461 6.673 14.201L106.157-.348" style="stroke-width:15;stroke-linecap:round;stroke-linejoin:round;stroke-miterlimit:10;stroke-dasharray:none;stroke-opacity:1" transform="translate(202.972 253.166)" fill="none" stroke="#000000" stroke-width="15" stroke-linecap="round" stroke-linejoin="round" stroke-miterlimit="10" stroke-dasharray="none" stroke-opacity="" data-original="#000000" class=""></path>
            <path d="m0 0 57.956-10.219" style="stroke-width:15;stroke-linecap:round;stroke-linejoin:round;stroke-miterlimit:10;stroke-dasharray:none;stroke-opacity:1" transform="translate(176.675 93.592)" fill="none" stroke="#000000" stroke-width="15" stroke-linecap="round" stroke-linejoin="round" stroke-miterlimit="10" stroke-dasharray="none" stroke-opacity="" data-original="#000000" class=""></path>
            <path d="m0 0 57.599 10.157" style="stroke-width:15;stroke-linecap:round;stroke-linejoin:round;stroke-miterlimit:10;stroke-dasharray:none;stroke-opacity:1" transform="translate(277.371 83.373)" fill="none" stroke="#000000" stroke-width="15" stroke-linecap="round" stroke-linejoin="round" stroke-miterlimit="10" stroke-dasharray="none" stroke-opacity="" data-original="#000000" class=""></path>
            <path d="M0 0c-17.296-14.626-29.976-34.542-35.542-57.25" style="stroke-width:15;stroke-linecap:round;stroke-linejoin:round;stroke-miterlimit:10;stroke-dasharray:none;stroke-opacity:1" transform="translate(185.622 454.215)" fill="none" stroke="#000000" stroke-width="15" stroke-linecap="round" stroke-linejoin="round" stroke-miterlimit="10" stroke-dasharray="none" stroke-opacity="" data-original="#000000" class=""></path>
            <path d="M0 0c-5.599 22.604-18.248 42.426-35.479 56.999" style="stroke-width:15;stroke-linecap:round;stroke-linejoin:round;stroke-miterlimit:10;stroke-dasharray:none;stroke-opacity:1" transform="translate(361.86 397.216)" fill="none" stroke="#000000" stroke-width="15" stroke-linecap="round" stroke-linejoin="round" stroke-miterlimit="10" stroke-dasharray="none" stroke-opacity="" data-original="#000000" class=""></path>
            <path d="M0 0c10.877 33.105 2.654 73.077-1.379 78.031-3.534 4.339-19.625 4.308-34.735 3.209-10.922 13.561-22.153 23.131-28.856 23.131-6.703 0-17.933-9.57-28.855-23.131-15.111 1.099-31.201 1.13-34.736-3.209-4.051-4.976-12.329-45.285-1.23-78.476" style="stroke-width:15;stroke-linecap:round;stroke-linejoin:round;stroke-miterlimit:10;stroke-dasharray:none;stroke-opacity:1" transform="translate(320.97 400.13)" fill="none" stroke="#000000" stroke-width="15" stroke-linecap="round" stroke-linejoin="round" stroke-miterlimit="10" stroke-dasharray="none" stroke-opacity="" data-original="#000000" class=""></path>
            <path d="M0 0c10.058-50.396 55.595-88.887 108.646-88.097 52.222.778 95.549 38.262 105.33 87.799" style="stroke-width:15;stroke-linecap:round;stroke-linejoin:round;stroke-miterlimit:10;stroke-dasharray:none;stroke-opacity:1" transform="translate(149.012 327.726)" fill="none" stroke="#000000" stroke-width="15" stroke-linecap="round" stroke-linejoin="round" stroke-miterlimit="10" stroke-dasharray="none" stroke-opacity="" data-original="#000000" class=""></path>
            <path d="M0 0h-191.17a20.001 20.001 0 0 1-18.974-13.675l-9.78-29.343c-3.222-9.668 1.339-20.212 10.592-24.483l96.984-44.762a40.002 40.002 0 0 1 33.526 0l96.984 44.762c9.253 4.271 13.815 14.815 10.592 24.483l-9.78 29.343A20.001 20.001 0 0 1 0 0Z" style="stroke-width:15;stroke-linecap:round;stroke-linejoin:round;stroke-miterlimit:10;stroke-dasharray:none;stroke-opacity:1" transform="translate(351.585 398.933)" fill="none" stroke="#000000" stroke-width="15" stroke-linecap="round" stroke-linejoin="round" stroke-miterlimit="10" stroke-dasharray="none" stroke-opacity="" data-original="#000000" class=""></path>
            <path d="M0 0v-40" style="stroke-width:15;stroke-linecap:round;stroke-linejoin:round;stroke-miterlimit:10;stroke-dasharray:none;stroke-opacity:1" transform="translate(256 360.96)" fill="none" stroke="#000000" stroke-width="15" stroke-linecap="round" stroke-linejoin="round" stroke-miterlimit="10" stroke-dasharray="none" stroke-opacity="" data-original="#000000" class=""></path>
            <path d="M0 0v-20" style="stroke-width:15;stroke-linecap:round;stroke-linejoin:round;stroke-miterlimit:10;stroke-dasharray:none;stroke-opacity:1" transform="translate(296 360.96)" fill="none" stroke="#000000" stroke-width="15" stroke-linecap="round" stroke-linejoin="round" stroke-miterlimit="10" stroke-dasharray="none" stroke-opacity="" data-original="#000000" class=""></path>
            <path d="M0 0v-20" style="stroke-width:15;stroke-linecap:round;stroke-linejoin:round;stroke-miterlimit:10;stroke-dasharray:none;stroke-opacity:1" transform="translate(216 360.96)" fill="none" stroke="#000000" stroke-width="15" stroke-linecap="round" stroke-linejoin="round" stroke-miterlimit="10" stroke-dasharray="none" stroke-opacity="" data-original="#000000" class=""></path>
        </g>
    </g>
</svg>